<?xml version="1.0" encoding="UTF-8" standalone="no"?>
<!-- Created with Inkscape (http://www.inkscape.org/) -->

<svg
   width="474.75626"
   height="565.44489"
   viewBox="0 0 125.61259 149.60729"
   version="1.1"
   id="svg1"
   xml:space="preserve"
   sodipodi:docname="bitmap.svg"
   inkscape:export-filename="bitmap512.png"
   inkscape:export-xdpi="19.660801"
   inkscape:export-ydpi="19.660801"
   inkscape:version="1.4 (e7c3feb100, 2024-10-09)"
   inkscape:export-batch-path="/media/pkk/Dinamicni/! Proj/! ! Radovi/! Medmentum/visuals/mmlogo"
   inkscape:export-batch-name="medmentum"
   xmlns:inkscape="http://www.inkscape.org/namespaces/inkscape"
   xmlns:sodipodi="http://sodipodi.sourceforge.net/DTD/sodipodi-0.dtd"
   xmlns="http://www.w3.org/2000/svg"
   xmlns:svg="http://www.w3.org/2000/svg"><sodipodi:namedview
     id="namedview1"
     pagecolor="#ffffff"
     bordercolor="#000000"
     borderopacity="0.25"
     inkscape:showpageshadow="2"
     inkscape:pageopacity="0.0"
     inkscape:pagecheckerboard="0"
     inkscape:deskcolor="#d1d1d1"
     inkscape:document-units="px"
     showgrid="true"
     inkscape:lockguides="true"
     inkscape:zoom="0.35120001"
     inkscape:cx="1084.8519"
     inkscape:cy="1250"
     inkscape:window-width="1920"
     inkscape:window-height="1043"
     inkscape:window-x="0"
     inkscape:window-y="0"
     inkscape:window-maximized="1"
     inkscape:current-layer="layer1"><inkscape:grid
       id="grid3"
       units="mm"
       originx="-133.60133"
       originy="-247.53622"
       spacingx="0.99999998"
       spacingy="0.99999999"
       empcolor="#0099e5"
       empopacity="0.30196078"
       color="#0099e5"
       opacity="0.14901961"
       empspacing="5"
       enabled="true"
       visible="true" /></sodipodi:namedview><defs
     id="defs1" /><g
     inkscape:groupmode="layer"
     id="layer3"
     inkscape:label="pilula"
     transform="matrix(0.93996723,-0.2023535,0.2023535,0.93996723,-163.51622,-180.04566)"
     style="display:inline"><path
       d="m 198.84313,236.67406 c -7.17358,0.84727 -14.46012,3.78447 -20.56048,8.33149 -3.13491,2.3159 -65.91781,65.15527 -67.9795,68.03602 -3.36086,4.66 -5.50728,9.26351 -6.89115,14.79902 -2.40061,9.46122 -1.49686,19.45903 2.59829,28.21418 8.69869,18.72472 29.23091,28.55309 49.17007,23.52594 5.50727,-1.38389 10.11079,-3.53031 14.77078,-6.89114 2.88073,-2.06172 65.72012,-64.8446 68.036,-67.97953 3.64327,-4.88593 5.78969,-9.43296 7.2583,-15.22266 2.4006,-9.46121 1.49684,-19.45903 -2.59832,-28.21418 -7.82313,-16.86073 -25.36168,-26.68909 -43.80399,-24.59914 z m 12.34194,13.75405 c 10.78861,2.96547 18.75297,11.04279 21.4925,21.80314 0.79077,3.16316 0.7343,11.12753 -0.11291,14.17772 -0.90376,3.3326 -2.17467,6.1286 -4.06691,9.03756 -1.46861,2.23115 -3.86922,4.77297 -16.29589,17.25612 l -14.54484,14.62957 -20.98411,-20.98412 -20.98413,-20.98411 12.65259,-12.6526 c 6.94765,-6.97589 13.81056,-13.75406 15.27917,-15.05322 4.43405,-4.01041 8.81164,-6.3263 14.14945,-7.48424 3.21965,-0.70606 10.42146,-0.56486 13.41515,0.25418 z m -63.40424,46.9389 c 0.96025,0.67783 1.5251,2.17467 1.24267,3.27613 -0.14127,0.56484 -3.67151,4.32108 -11.26871,11.97478 -8.75518,8.86813 -11.32521,11.60764 -12.37019,13.30217 -2.23115,3.5868 -3.10667,6.26982 -3.55854,10.90159 -0.36716,3.55855 -1.1862,4.60352 -3.5868,4.60352 -0.79078,0 -1.24266,-0.22594 -2.0052,-0.9885 l -1.01673,-1.01672 0.16946,-3.16314 c 0.25417,-5.28134 1.72279,-9.7154 4.77297,-14.37541 1.44036,-2.14641 3.61503,-4.49054 12.05951,-13.04798 5.67673,-5.73322 10.84509,-10.78861 11.43817,-11.21224 1.35565,-0.98848 2.93722,-1.10147 4.12339,-0.2542 z"
       id="path1-7"
       style="stroke-width:0.0282424" /></g></svg>
